<svg xmlns="http://www.w3.org/2000/svg" xmlns:xlink="http://www.w3.org/1999/xlink" width="500" zoomAndPan="magnify" viewBox="0 0 375 374.999991" height="500" preserveAspectRatio="xMidYMid meet" version="1.2"><defs><clipPath id="b304235de0"><path d="M 3.761719 3.761719 L 371.238281 3.761719 L 371.238281 371.238281 L 3.761719 371.238281 Z M 3.761719 3.761719 "/></clipPath><clipPath id="7a2e317304"><path d="M 187.5 3.761719 C 86.023438 3.761719 3.761719 86.023438 3.761719 187.5 C 3.761719 288.976562 86.023438 371.238281 187.5 371.238281 C 288.976562 371.238281 371.238281 288.976562 371.238281 187.5 C 371.238281 86.023438 288.976562 3.761719 187.5 3.761719 Z M 187.5 3.761719 "/></clipPath><clipPath id="dad013a5d6"><path d="M 95.628906 95.628906 L 279.371094 95.628906 L 279.371094 279.371094 L 95.628906 279.371094 Z M 95.628906 95.628906 "/></clipPath><clipPath id="6ae6322143"><path d="M 187.5 95.628906 C 136.761719 95.628906 95.628906 136.761719 95.628906 187.5 C 95.628906 238.238281 136.761719 279.371094 187.5 279.371094 C 238.238281 279.371094 279.371094 238.238281 279.371094 187.5 C 279.371094 136.761719 238.238281 95.628906 187.5 95.628906 Z M 187.5 95.628906 "/></clipPath><clipPath id="1dc5310ac3"><path d="M 95.628906 95.628906 L 279.367188 95.628906 L 279.367188 279.367188 L 95.628906 279.367188 Z M 95.628906 95.628906 "/></clipPath><clipPath id="3eece889c3"><path d="M 187.5 95.628906 C 136.761719 95.628906 95.628906 136.761719 95.628906 187.5 C 95.628906 238.238281 136.761719 279.367188 187.5 279.367188 C 238.238281 279.367188 279.367188 238.238281 279.367188 187.5 C 279.367188 136.761719 238.238281 95.628906 187.5 95.628906 Z M 187.5 95.628906 "/></clipPath><clipPath id="c491a493b3"><path d="M 94.425781 94.425781 L 280.425781 94.425781 L 280.425781 280.425781 L 94.425781 280.425781 Z M 94.425781 94.425781 "/></clipPath></defs><g id="36bb829e6a"><g clip-rule="nonzero" clip-path="url(#b304235de0)"><g clip-rule="nonzero" clip-path="url(#7a2e317304)"><path style=" stroke:none;fill-rule:nonzero;fill:#00a3e0;fill-opacity:1;" d="M 3.761719 3.761719 L 371.238281 3.761719 L 371.238281 371.238281 L 3.761719 371.238281 Z M 3.761719 3.761719 "/><path style="fill:none;stroke-width:26;stroke-linecap:butt;stroke-linejoin:miter;stroke:#ffffff;stroke-opacity:1;stroke-miterlimit:4;" d="M 244.984594 0.000193521 C 109.682493 0.000193521 0.000187521 109.682499 0.000187521 244.9846 C 0.000187521 380.286701 109.682493 489.969007 244.984594 489.969007 C 380.286695 489.969007 489.969001 380.286701 489.969001 244.9846 C 489.969001 109.682499 380.286695 0.000193521 244.984594 0.000193521 Z M 244.984594 0.000193521 " transform="matrix(0.75,0,0,0.75,3.761578,3.761574)"/></g></g><g clip-rule="nonzero" clip-path="url(#dad013a5d6)"><g clip-rule="nonzero" clip-path="url(#6ae6322143)"><path style=" stroke:none;fill-rule:nonzero;fill:#8db95b;fill-opacity:1;" d="M 95.628906 95.628906 L 279.371094 95.628906 L 279.371094 279.371094 L 95.628906 279.371094 Z M 95.628906 95.628906 "/></g></g><g clip-rule="nonzero" clip-path="url(#1dc5310ac3)"><g clip-rule="nonzero" clip-path="url(#3eece889c3)"><path style="fill:none;stroke-width:6;stroke-linecap:butt;stroke-linejoin:miter;stroke:#ffffff;stroke-opacity:1;stroke-miterlimit:4;" d="M 122.492303 -0.00249849 C 54.841253 -0.00249849 -0.00250449 54.841259 -0.00250449 122.492309 C -0.00250449 190.143359 54.841253 244.981908 122.492303 244.981908 C 190.143353 244.981908 244.981902 190.143359 244.981902 122.492309 C 244.981902 54.841259 190.143353 -0.00249849 122.492303 -0.00249849 Z M 122.492303 -0.00249849 " transform="matrix(0.75,0,0,0.75,95.630785,95.63078)"/></g></g><g clip-rule="nonzero" clip-path="url(#c491a493b3)"><path style=" stroke:none;fill-rule:nonzero;fill:#ffffff;fill-opacity:1;" d="M 187.425781 94.425781 C 136.183594 94.425781 94.425781 136.183594 94.425781 187.425781 C 94.425781 238.667969 136.183594 280.425781 187.425781 280.425781 C 238.667969 280.425781 280.425781 238.667969 280.425781 187.425781 C 280.425781 136.183594 238.667969 94.425781 187.425781 94.425781 Z M 187.425781 267.128906 C 143.4375 267.128906 107.726562 231.414062 107.726562 187.425781 C 107.726562 143.4375 143.4375 107.726562 187.425781 107.726562 C 231.414062 107.726562 267.128906 143.4375 267.128906 187.425781 C 267.128906 231.414062 231.414062 267.128906 187.425781 267.128906 Z M 187.425781 267.128906 "/></g><path style=" stroke:none;fill-rule:nonzero;fill:#ffffff;fill-opacity:1;" d="M 163.804688 199.609375 C 160.734375 197.5625 159.898438 193.472656 161.945312 190.402344 C 163.992188 187.332031 168.082031 186.496094 171.152344 188.542969 L 180.730469 194.960938 L 180.730469 147.527344 C 180.730469 143.902344 183.707031 140.925781 187.332031 140.925781 C 190.960938 140.925781 193.9375 143.902344 193.9375 147.527344 L 193.9375 194.867188 L 203.515625 188.449219 C 206.585938 186.402344 210.675781 187.242188 212.722656 190.308594 C 214.769531 193.378906 213.929688 197.46875 210.863281 199.515625 L 191.144531 212.910156 C 191.054688 213 190.960938 213 190.867188 213 C 190.773438 213.09375 190.679688 213.1875 190.589844 213.1875 C 190.308594 213.375 190.03125 213.375 189.75 213.558594 C 189.566406 213.652344 189.378906 213.746094 189.191406 213.746094 C 188.636719 213.929688 188.078125 214.023438 187.519531 214.023438 C 186.960938 214.023438 186.308594 213.929688 185.753906 213.746094 C 185.566406 213.652344 185.378906 213.652344 185.195312 213.558594 C 184.820312 213.375 184.449219 213.28125 184.078125 213 C 183.984375 212.910156 183.890625 212.910156 183.800781 212.910156 Z M 163.804688 199.609375 "/><path style=" stroke:none;fill-rule:nonzero;fill:#ffffff;fill-opacity:1;" d="M 227.324219 227.324219 C 227.324219 230.949219 224.347656 233.925781 220.71875 233.925781 L 154.226562 233.925781 C 150.597656 233.925781 147.621094 230.949219 147.621094 227.324219 C 147.621094 223.695312 150.597656 220.71875 154.226562 220.71875 L 220.628906 220.71875 C 224.347656 220.628906 227.324219 223.601562 227.324219 227.324219 Z M 227.324219 227.324219 "/></g></svg>